<svg data-v-423bf9ae="" xmlns="http://www.w3.org/2000/svg" viewBox="0 0 321.6129059824093 60" class="font"><!----><!----><!----><g data-v-423bf9ae="" id="a4233c7a-e3d7-4242-a946-42211f50c528" fill="white" transform="matrix(5.376344159530915,0,0,5.376344159530915,-6.236562027459655,-15.053762675066757)"><path d="M1.16 13.78L1.16 2.80L4.10 2.80Q5.17 2.80 5.95 3.21Q6.73 3.62 7.14 4.40Q7.55 5.18 7.55 6.27L7.55 6.27Q7.55 7.33 7.12 8.09Q6.69 8.85 5.88 9.25Q5.07 9.65 3.96 9.65L3.96 9.65L2.88 9.65L2.88 13.78L1.16 13.78ZM2.88 8.29L3.92 8.29Q5.87 8.29 5.87 6.28L5.87 6.28Q5.87 5.30 5.39 4.76Q4.91 4.22 4.00 4.22L4.00 4.22L2.88 4.22L2.88 8.29ZM11.03 5.48Q12.33 5.48 13.09 6.14Q13.85 6.80 13.85 8.12L13.85 8.12L13.85 13.78L12.42 13.78L12.35 12.54L12.24 12.54Q12.04 13.01 11.70 13.33Q11.35 13.64 10.95 13.80Q10.55 13.96 10.17 13.96L10.17 13.96Q9.54 13.96 9.06 13.69Q8.58 13.42 8.32 12.94Q8.05 12.46 8.05 11.85L8.05 11.85Q8.05 11.01 8.40 10.43Q8.74 9.85 9.43 9.42L9.43 9.42Q9.97 9.08 10.71 8.85Q11.44 8.61 12.30 8.50L12.30 8.50L12.30 8.22Q12.34 7.46 12.03 7.11Q11.72 6.76 11.05 6.76L11.05 6.76Q10.45 6.76 10.06 7.08Q9.67 7.39 9.43 7.97L9.43 7.97L8.18 7.36Q8.54 6.41 9.27 5.94Q10.01 5.48 11.03 5.48L11.03 5.48ZM10.68 12.64Q11.22 12.63 11.62 12.27Q12.01 11.92 12.28 11.35L12.28 11.35L12.28 9.67Q11.75 9.73 11.27 9.90Q10.79 10.06 10.43 10.32L10.43 10.32Q9.67 10.86 9.67 11.64L9.67 11.64Q9.67 11.96 9.81 12.19Q9.95 12.43 10.18 12.54Q10.41 12.66 10.68 12.64L10.68 12.64ZM22.63 5.63L24.34 5.63L22.85 13.78L20.71 13.78L19.52 7.74L19.46 7.74L18.29 13.80L16.15 13.80L14.67 5.63L16.39 5.63L17.28 12.41L18.79 5.63L20.21 5.63L21.71 12.43L22.63 5.63ZM35.62 13.79L33.77 13.79L31.73 9.65L31.55 9.65L30.47 9.65L30.47 13.78L28.75 13.78L28.75 2.80L31.69 2.80Q32.76 2.80 33.54 3.21Q34.32 3.62 34.73 4.40Q35.14 5.18 35.14 6.27L35.14 6.27Q35.14 7.39 34.65 8.18Q34.17 8.97 33.27 9.34L33.27 9.34L35.62 13.79ZM30.47 4.22L30.47 8.29L31.51 8.29Q33.46 8.29 33.46 6.28L33.46 6.28Q33.46 5.30 32.98 4.76Q32.50 4.22 31.59 4.22L31.59 4.22L30.47 4.22ZM42.32 9.44Q42.32 9.97 42.28 10.19L42.28 10.19L37.80 10.19Q37.81 10.86 38.02 11.40Q38.23 11.94 38.63 12.26Q39.03 12.57 39.59 12.57L39.59 12.57Q40.50 12.57 41.06 11.77L41.06 11.77L42.18 12.37Q41.73 13.23 41.06 13.59Q40.39 13.95 39.53 13.95L39.53 13.95Q38.49 13.95 37.73 13.40Q36.97 12.86 36.57 11.90Q36.18 10.95 36.18 9.73L36.18 9.73Q36.18 8.51 36.50 7.56Q36.82 6.60 37.53 6.04Q38.23 5.48 39.33 5.48L39.33 5.48Q40.96 5.48 41.64 6.58Q42.32 7.69 42.32 9.44L42.32 9.44ZM39.37 6.80Q38.55 6.80 38.19 7.42Q37.84 8.05 37.81 9.04L37.81 9.04L40.90 9.04Q40.88 8.31 40.75 7.83Q40.61 7.35 40.28 7.08Q39.95 6.80 39.37 6.80L39.37 6.80ZM43.65 13.78L43.65 2.80L45.32 2.80L45.32 13.78L43.65 13.78ZM47.17 4.44L47.17 2.80L48.84 2.80L48.84 4.44L47.17 4.44ZM47.16 13.78L47.16 5.63L48.84 5.63L48.84 13.78L47.16 13.78ZM56.30 9.44Q56.30 9.97 56.26 10.19L56.26 10.19L51.78 10.19Q51.79 10.86 52.00 11.40Q52.21 11.94 52.61 12.26Q53.01 12.57 53.57 12.57L53.57 12.57Q54.48 12.57 55.04 11.77L55.04 11.77L56.16 12.37Q55.71 13.23 55.04 13.59Q54.37 13.95 53.50 13.95L53.50 13.95Q52.47 13.95 51.71 13.40Q50.95 12.86 50.55 11.90Q50.16 10.95 50.16 9.73L50.16 9.73Q50.16 8.51 50.48 7.56Q50.80 6.60 51.51 6.04Q52.21 5.48 53.31 5.48L53.31 5.48Q54.94 5.48 55.62 6.58Q56.30 7.69 56.30 9.44L56.30 9.44ZM53.35 6.80Q52.53 6.80 52.17 7.42Q51.82 8.05 51.79 9.04L51.79 9.04L54.88 9.04Q54.86 8.31 54.73 7.83Q54.59 7.35 54.26 7.08Q53.93 6.80 53.35 6.80L53.35 6.80ZM57.87 13.78L57.87 6.79L56.79 6.79L56.79 5.63L57.89 5.63L57.89 5.11Q57.89 4.05 58.40 3.43Q58.91 2.80 59.86 2.80L59.86 2.80L60.98 2.80L60.98 4.00L60.31 4.00Q59.92 4.00 59.70 4.29Q59.49 4.57 59.49 5.06L59.49 5.06L59.49 5.63L60.98 5.63L60.98 6.79L59.53 6.79L59.53 13.78L57.87 13.78Z"></path></g><!----><!----></svg>